# xmcd
#
# Track frame offsets:
#	150
#	23353
#	39617
#	55877
#	73332
#	96756
#	114504
#	134488
#	158727
#	179309
#	197371
#	214326
#	235314
#	254795
#	277077
#
# Disc length: 3971 seconds
#
# Revision: 0
# Processed by: cddbd v1.5.2PL0 Copyright (c) Steve Scherf et al.
# Submitted via: dBpowerAMP V4.0
#
DISCID=df0f810f
DTITLE=Charlie Landsborough - The Storyteller
DYEAR=1900
DGENRE=
TTITLE0=My Heart Would Know
TTITLE1=I'm Growing Old
TTITLE2=Special
TTITLE3=Passing Through
TTITLE4=What Colour Is The Wind
TTITLE5=I've Seen Love
TTITLE6=How Do You Do Those Things
TTITLE7=Walking On My Memories
TTITLE8=I Am Red
TTITLE9=A Fathers Song
TTITLE10=What Happened To Love
TTITLE11=Love You Every Second
TTITLE12=You're Still Around
TTITLE13=Saints
TTITLE14=Five Fingers
EXTD=
EXTT0=
EXTT1=
EXTT2=
EXTT3=
EXTT4=
EXTT5=
EXTT6=
EXTT7=
EXTT8=
EXTT9=
EXTT10=
EXTT11=
EXTT12=
EXTT13=
EXTT14=
PLAYORDER=
